<?xml version="1.0" encoding="utf-8"?>
<svg viewBox="0 0 500 500" xmlns="http://www.w3.org/2000/svg">
  <path d="M 440.436 186.269 C 428.291 186.738 208.087 203.481 208.087 203.481 C 208.087 203.481 207.758 86.035 207.12 87.022 L 128.376 203.827 C 128.376 203.827 35.15 214.991 35.909 214.948 L 38.075 324.735 L 440.901 306.801 C 440.833 297.489 440.436 186.269 440.436 186.269 Z" fill-opacity="1" fill-rule="nonzero" style="fill: rgb(104, 22, 232);" transform="matrix(1, 0, 0, 1, -5.684341886080802e-14, 0)"/>
  <path d="M 469.275 325.24 L 305.119 332.249 L 299.616 217.197 C 365.508 212.218 460.474 205.03 468.81 204.708 C 468.81 204.708 469.207 315.928 469.275 325.24 Z" fill-opacity="1" fill-rule="nonzero" style="fill: rgb(179, 179, 179);" transform="matrix(1, 0, 0, 1, -5.684341886080802e-14, 0)"/>
  <path d="M 66.449 343.174 L 64.283 233.387 C 63.524 233.43 156.75 222.266 156.75 222.266 L 235.494 105.461 C 236.132 104.474 236.461 221.92 236.461 221.92 C 236.461 221.92 253.448 220.692 262.546 220.002 L 267.825 333.902 L 66.449 343.174 Z" fill-opacity="1" fill-rule="nonzero" style="fill: rgb(254, 216, 181);" transform="matrix(1, 0, 0, 1, -5.684341886080802e-14, 0)"/>
  <path d="M 299.689 217.192 L 305.118 332.253 L 267.75 333.917 L 262.376 220.017 C 271.564 219.32 284.56 218.336 299.689 217.192 Z" fill-opacity="1" fill-rule="nonzero" style="fill: rgb(255, 255, 255);" transform="matrix(1, 0, 0, 1, -5.684341886080802e-14, 0)"/>
</svg>